<?xml version="1.0" standalone="no"?>
<!DOCTYPE svg PUBLIC "-//W3C//DTD SVG 1.1//EN" "http://www.w3.org/Graphics/SVG/1.1/DTD/svg11.dtd">
<svg xmlns="http://www.w3.org/2000/svg">
<metadata>Copyright (C) 2015 by original authors @ fontello.com</metadata>
<defs>
<font id="fontello" horiz-adv-x="1000" >
<font-face font-family="fontello" font-weight="400" font-stretch="normal" units-per-em="1000" ascent="850" descent="-150" />
<missing-glyph horiz-adv-x="1000" />
<glyph glyph-name="icon-dance" unicode="&#xe800;" d="m882 130l-52-24-84 164-141 78v226l85 80 37-38-60-111-19 11-5-8 27-16 64 118 76-45-106-178-56 28-4-9 64-32 117 195-88 52-38 40 95 90-82 86-96-89-53 55-7-7 52-55-83-77h-78l-367-221 54-84 305 179-80-209 38-20-2-141-163-162 147-143 52 59-46 42 135 141v141l131-67 104-203 165 80-38 74z m-171 693l69-72-89-83-70 72 90 83z m-97-89l70-72-83-78-67 76 80 74z m-104-625l-139-146 46-42-39-44-132 129 159 159 2 140 103-54v-142z m148 77l-287 148 87 226-321-188-44 68 357 215h75l51-58 19-22v-233l143-79 87-169 52 24 29-58-148-72-100 198z" horiz-adv-x="1000" />
<glyph glyph-name="icon-music-47" unicode="&#xe801;" d="m980 230v351l-171-171h-321v93h-10v-93h-88v93h-10v-93h-56v93h-10v-93h-284v44h-10v-98h10v44h155c-49-18-83-61-83-110 0-68 72-119 136-119h77v-40h10v40h56v-40h10v40h89v-40h10v40h110c64 0 136 49 136 119 0 49-34 92-83 110h158l169-170z m-742-49c-60 0-126 47-126 110 0 60 58 110 126 110h77v-220h-77z m86 0v220h56v-220h-56z m66 0v220h89v-220h-89z m335 110c0-65-67-110-126-110h-110v220h110c68 0 126-51 126-110z m245 267v-305l-152 153 152 152z" horiz-adv-x="1000" />
<glyph glyph-name="icon-theater" unicode="&#xe802;" d="m968 621c-37-37-132-64-252-72v281l-8-10c-33-40-140-68-279-74-154-7-339 17-397 74l-8 8v-353c0-125 92-237 131-279l7 6c-38 42-128 152-128 274v330c69-57 251-76 396-70 133 6 235 31 277 69v-257c-25-2-50-2-77-2-159 0-292 30-338 75l-8 8v-348c0-226 261-411 346-411 85 0 346 185 346 411v348l-8-8z m-2-340c0-221-254-402-336-402-82 0-336 181-336 401v327c53-43 183-71 336-71 153 0 283 28 337 71v-326z m-461-130h-9c0-74 60-135 135-135 74 0 135 60 135 135h-9c0-69-56-125-125-125-71 0-127 56-127 125z m271 239c33 0 60-27 60-60h9c0 38-31 70-70 70-38 0-70-31-70-70h9c2 33 29 60 62 60z m-232-60h9c0 38-31 70-70 70-38 0-70-31-70-70h9c0 33 27 60 60 60 35 0 62-27 62-60z" horiz-adv-x="1000" />
<glyph glyph-name="facebook" unicode="&#xe803;" d="m500 644l-142 0q-14 0-25-15t-11-37l0-102 178 0 0-148-178 0 0-442-170 0 0 442-152 0 0 148 152 0 0 86q0 94 59 159t147 65l142 0 0-156z" horiz-adv-x="500" />
<glyph glyph-name="twitter" unicode="&#xe804;" d="m920 636q-36-54-94-98l0-24q0-130-60-250t-186-203-290-83q-160 0-290 84 14-2 46-2 132 0 234 80-62 2-110 38t-66 94q10-4 34-4 26 0 50 6-66 14-108 66t-42 120l0 2q36-20 84-24-84 58-84 158 0 48 26 94 154-188 390-196-6 18-6 42 0 78 55 133t135 55q82 0 136-58 60 12 120 44-20-66-82-104 56 8 108 30z" horiz-adv-x="920" />
<glyph glyph-name="instagram" unicode="&#xe805;" d="m690 350q0 26-6 50l176 0 0-344q0-56-39-96t-95-40l-592 0q-56 0-95 40t-39 96l0 344 174 0q-4-32-4-50 0-106 76-183t184-77q106 0 183 77t77 183z m36 430q56 0 95-39t39-95l0-146-218 0q-78 110-212 110-138 0-212-110l-218 0 0 146q0 56 39 95t95 39l592 0z m64-166l0 72q0 24-24 24l-72 0q-24 0-24-24l0-72q0-8 7-16t17-8l72 0q24 0 24 24z m-200-264q0-66-47-113t-113-47-113 47-47 113q0 68 47 114t113 46 113-46 47-114z" horiz-adv-x="860" />
<glyph glyph-name="youtube" unicode="&#xe806;" d="m0-29l0 758 1000 0 0-758-1000 0z m355 157l350 220-350 219 0-439z" horiz-adv-x="1000" />
<glyph glyph-name="location" unicode="&#xe807;" d="m0 473q0 156 110 267t267 110 267-110 110-267q0-123-53-193l-324-430-324 430q-53 70-53 193z m219 0q0-66 46-112t112-46 112 46 46 112-46 112-112 46-112-46-46-112z" horiz-adv-x="754" />
<glyph glyph-name="icon-airplane-48" unicode="&#xe808;" d="m899 702c0 1 0 2 0 2 0 1 0 1 0 2 0 1-1 1-1 2 0 0 0 1 0 1 0 0 0 0-1 1 0 1-1 1-2 2 0 0-1 1-1 1 0 0 0 0-1 1 0 0-1 0-1 1-1 0-1 0-2 1-1 0-2 0-2 0-1 0-1 0-2 0-1 0-2 0-3-1 0 0-1 0-1 0l-774-321c-4-2-7-6-7-11 0-5 3-9 7-11l289-117v-258c0-5 4-10 9-12 1 0 2 0 3 0 4 0 8 2 10 6l115 192 210-112c2-1 4-1 6-1 2 0 3 0 5 1 3 2 6 5 7 8l137 621c0 0 0 0 0 1 0 0 0 1 0 1z m-69-36l-117-107-307-282-262 106 686 283z m-409-625v203l92-49-92-154z m321 58l-313 167 439 402-126-569z" horiz-adv-x="1000" />
<glyph glyph-name="icon-airplane-01" unicode="&#xe809;" d="m758 404v-54h-27v192c0 112-111 215-233 215-128 0-228-95-228-215v-192h-27v55h-27l0-68c-3-77 24-148 77-202 51-52 119-82 194-85v-106h27v106c153 8 271 131 271 287v68h-27z m-461-27h133v27h-133v54h133v27h-133v55h133v27h-132c9 67 52 116 107 142v-60h27v71c18 6 36 9 54 10v-81h27v81c19-2 37-6 54-12v-69h27v57c55-29 97-81 106-138h-134v-28h137v-54h-137v-27h137v-54h-137v-27h137v-28h-406v27z m406-54c-8-94-101-176-203-176-102 0-194 82-203 176h406z m-205-247c-71 0-137 27-186 77-44 45-69 105-70 169h28c8-110 112-203 230-203s222 94 230 203h27c-6-138-118-246-259-246z" horiz-adv-x="1000" />
<glyph glyph-name="icon-quote-01" unicode="&#xe80a;" d="m398 4c-206 3-378 26-378 212 0 58 23 122 55 186l140 294 183-55-67-288c-3-17 0-26 14-32l111-38-58-279z m524 0c-207 3-378 26-378 212 0 58 23 122 55 186l140 294 183-55-67-288c-3-17 0-26 15-32l110-38-58-279z" horiz-adv-x="1000" />
<glyph glyph-name="icon-marker-01" unicode="&#xe80b;" d="m820 510c0-45-7-83-21-112l-227-484c-7-14-17-25-30-32-13-8-27-12-42-12-15 0-29 4-42 12-13 8-23 19-29 32l-228 484c-14 29-21 67-21 112 0 88 31 164 94 226s138 94 226 94c88 0 164-31 226-94 63-62 94-138 94-226z m-207-113c31 31 47 69 47 113 0 44-16 82-47 113-31 31-69 47-113 47-44 0-82-16-113-47-31-31-47-69-47-113 0-44 16-82 47-113 31-31 69-47 113-47 44 0 82 16 113 47z" horiz-adv-x="1000" />
<glyph glyph-name="youtube-play" unicode="&#xe80c;" d="m714 350q0 21-16 30l-286 179q-17 11-36 1-19-10-19-31v-358q0-21 19-31 9-4 17-4 11 0 19 5l286 179q16 9 16 30z m286 0q0-54-1-84t-4-76-13-82q-9-41-38-69t-70-32q-123-14-374-14t-374 14q-40 4-70 32t-39 69q-7 36-12 82t-4 76-1 84 1 84 4 76 13 82q9 41 38 69t70 32q123 14 374 14t374-14q40-4 70-32t39-69q8-36 12-82t4-76 1-84z" horiz-adv-x="1000" />
<glyph glyph-name="soundcloud" unicode="&#xe80d;" d="m438 84l8 135-8 292q-1 5-5 9t-9 4q-5 0-9-4t-4-9l-8-292 8-135q1-5 4-9t9-3q12 0 14 12z m165 17l6 117-7 327q0 9-7 14-5 2-9 2t-9-2q-7-5-7-14l-1-3-5-323q0-1 6-132v0q0-6 3-10 5-6 13-6 6 0 11 5 5 4 5 11z m-583 189l11-71-11-70q-2-5-5-5t-5 5l-10 70 10 71q1 5 5 5t5-5z m48 44l14-115-14-113q-2-5-6-5-5 0-5 5l-13 113 13 115q0 5 5 5 4 0 6-5z m156-252z m-105 274l14-137-14-132q0-6-6-6-6 0-7 6l-12 132 12 137q1 6 7 6 6 0 6-6z m52 4l13-141-13-136q-1-8-7-8-8 0-8 8l-11 136 11 141q0 7 8 7 6 0 7-7z m53-11l12-130-12-137q-1-9-9-9-3 0-6 2t-2 7l-12 137 12 130q0 4 2 6t6 3q8 0 9-9z m214-265z m-162 347l12-212-12-137q0-4-3-7t-6-3q-9 0-10 10l-10 137 10 212q1 10 10 10 4 0 6-3t3-7z m53 48l10-261-10-136q0-5-3-8t-8-3q-10 0-11 11l-9 136 9 261q1 11 11 11 5 0 8-4t3-7z m54 22l10-282-10-135q-1-12-12-12-10 0-12 12l-9 135 9 282q0 5 4 9t8 4q5 0 8-4t4-9z m219-414z m-110 416l8-284-8-133q0-6-5-10t-9-4-10 3-4 11l-8 133 8 284q0 7 4 11t10 3 9-3 5-11z m55-10l8-275-8-131q0-6-5-11t-10-4-11 4-5 11l-6 131 6 275q1 7 5 11t11 4 10-4 5-11z m118-275l-8-129q0-7-5-12t-12-5-12 5-6 12l-3 64-3 65 6 355v2q1 8 7 13 5 4 11 4 5 0 8-3 8-4 9-14z m621 11q0-65-47-111t-111-46h-439q-7 1-12 6t-5 12v502q0 12 16 18 47 19 101 19 108 0 188-73t89-181q30 12 62 12 65 0 111-46t47-112z" horiz-adv-x="1285.7" />
<glyph glyph-name="angle-down" unicode="&#xe80e;" d="m600 439q0-7-6-13l-260-260q-5-5-13-5t-12 5l-260 260q-6 6-6 13t6 13l27 28q6 6 13 6t13-6l219-219 220 219q5 6 13 6t12-6l28-28q6-5 6-13z" horiz-adv-x="642.9" />
<glyph glyph-name="angle-right" unicode="&#xe80f;" d="m332 314q0-7-6-13l-260-260q-5-5-12-5t-13 5l-28 28q-6 6-6 13t6 13l219 219-219 220q-6 5-6 12t6 13l28 28q5 6 13 6t12-6l260-260q6-5 6-13z" horiz-adv-x="357.1" />
<glyph glyph-name="angle-left" unicode="&#xe810;" d="m350 546q0-7-6-12l-219-220 219-219q6-6 6-13t-6-13l-28-28q-5-5-12-5t-13 5l-260 260q-6 6-6 13t6 13l260 260q5 6 13 6t12-6l28-28q6-5 6-13z" horiz-adv-x="357.1" />
<glyph glyph-name="angle-up" unicode="&#xe811;" d="m600 189q0-7-6-13l-28-27q-5-6-12-6t-13 6l-220 219-219-219q-5-6-13-6t-13 6l-27 27q-6 6-6 13t6 13l260 260q5 6 12 6t13-6l260-260q6-5 6-13z" horiz-adv-x="642.9" />
<glyph glyph-name="icon-logo-02" unicode="&#xe812;" d="m227 768h-31v61h125v-246c0-29 8-110 81-110 73 0 79 63 79 89v267h122v-61h-27v-228c0-55-54-154-177-154-122 0-172 117-172 156v226z m515-79l145-292h59v372 60h-72v-60h27v-240l-138 300h-139v-60h31v-285h-31v-88h118v293z m205-449v-351c-6-4-11-9-17-13h-258l-127 256v-256h-183l-15 60h-99l-16-60h-220v424l89 0v-82h-28v-291h88l90 373h93l90-373h24v291h-31v82h127l158-316v234h-20v80c0 0 57 2 100 2 27 0 101-7 155-60z m-619-229l-31 123-31-123h62z m587 59c0 169-109 145-109 145v-287c0 0 109-27 109 142z m-720 453c0 137-141 161-183 182v-72c0-59 86-35 86-107 0-52-53-65-62-65-8 0-24 1-24 1v-79c5 0 183 3 183 140z" horiz-adv-x="961" />
<glyph glyph-name="logo-sunland" unicode="&#xe813;" d="m238-20v-16h-9v17c0 5-3 8-8 8-6 0-8-4-8-8v-63c0-5 3-8 8-8 5 0 8 3 8 8v17h9v-16c0-11-6-19-18-19-11 0-18 9-18 20v60c0 11 7 20 18 20 11-1 18-9 18-20z m36-26h-16v44h-11v-97h11v43h16v-43h10v97h-10v-44z m16 620c0 102-105 119-135 135v-54c0-43 64-26 64-79 0-39-39-48-46-48-6 0-18 1-18 1v-59c3 0 135 2 135 104z m404 122l108-216h44v275 45h-54v-45h21v-178l-103 223h-103v-45h23v-211h-23v-65h87v217z m-381-109c0-29 37-116 128-116 91 0 131 73 131 114v170h20v45h-90v-198c0-19-4-66-58-66-54 0-60 60-60 82v182h-94v-45h23v-168z m64-608v-59c0-12-7-20-19-20s-18 8-18 20v59c0 12 7 20 19 20s18-8 18-20z m-10 2c0 5-3 9-8 9s-9-4-9-9v-62c0-5 3-9 8-9s8 4 8 9v62z m-199 0c0 6 3 9 8 9 5 0 8-4 8-11v-11h10v12c0 11-7 19-17 19-12 0-18-9-18-21 0-11 8-24 15-33 8-10 11-18 11-27 0-6-3-10-8-10-5 0-8 4-8 11v11h-10v-11c0-11 7-19 18-19 9 0 18 6 18 21 0 11-5 21-14 32-9 11-13 18-13 28z m27 790c21 0 27-18 29-28h54c0 0 0 34 0 57h-124v-43c0 0 6 14 41 14z m433-870h31v10h-20v35h15v9h-15v32h20v10h-31v-96z m136 7v-7h-3c-7 0-10 2-10 10v25c0 5-2 8-7 8h-8v-42h-11v97h19c9 0 16-4 16-17v-18c0-7-2-12-8-14 6-2 8-7 8-14v-23c2-4 2-5 4-5z m-13 73c0 4-2 7-6 7h-8v-35h8c4 0 7 3 7 8v20z m-45 17l14-97h-11l-3 21h-13l-3-21h-10l15 97h11z m-1-66l-5 43-6-43h11z m63 56h13v-87h10v87h12v10h-36v-10z m50-7c0 6 3 9 8 9 5 0 8-4 8-11v-11h10v12c0 11-7 19-17 19-12 0-18-9-18-21 0-11 8-24 15-33 8-10 11-18 11-27 0-6-3-10-8-10-5 0-8 4-8 11v11h-10v-11c0-11 7-19 18-19 9 0 18 6 18 21 0 11-5 21-14 32-9 11-13 18-13 28z m28 383v-260c-4-4-8-7-12-10h-191l-94 190v-190h-136l-11 45h-74l-11-45h-163v314l66 0v-61h-21v-215h65l67 276h69l67-276h18v216h-23v61h94l117-234v172h-15v59c0 0 42 2 75 2 18 0 73-5 113-44z m-458-170l-23 91-23-91h46z m435 44c0 125-81 107-81 107v-212c0 0 81-20 81 105z m-336-337h11v44h15v9h-15v33h19v10h-30v-96z m120 53h-16v44h-11v-97h11v43h16v-43h10v97h-10v-44z m-209 44h-10v-97h30v10h-20v87z m79-19v-59c0-12-7-20-19-20s-18 8-18 20v59c0 12 7 20 19 20s18-8 18-20z m-10 2c0 5-3 9-8 9s-8-4-8-9v-62c0-5 3-9 8-9s8 4 8 9v62z m71 7h13v-87h10v87h12v10h-36v-10z m-207-9v-59c0-12-7-20-19-20s-19 8-19 20v59c0 12 7 20 19 20s19-8 19-20z m-10 2c0 5-3 9-8 9s-8-4-8-9v-62c0-5 3-9 8-9s8 4 8 9v62z" horiz-adv-x="1000" />
</font>
</defs>
</svg>
