<?xml version="1.0" encoding="utf-8"?>
<!-- Generator: Adobe Illustrator 18.1.1, SVG Export Plug-In . SVG Version: 6.00 Build 0)  -->
<svg version="1.1" id="Layer_1" xmlns="http://www.w3.org/2000/svg" xmlns:xlink="http://www.w3.org/1999/xlink" x="0px" y="0px"
	 viewBox="0 0 100 100" enable-background="new 0 0 100 100" xml:space="preserve">
<path d="M98,62V26.9L80.9,44H48.8v-9.3h-1V44H39v-9.3h-1V44h-5.6v-9.3h-1V44H3v-4.4H2v9.8h1v-4.4h15.5c-4.9,1.8-8.3,6.1-8.3,11
	c0,6.8,7.2,11.9,13.6,11.9h7.7v4h1v-4h5.6v4h1v-4h8.9v4h1v-4h11c6.4,0,13.6-4.9,13.6-11.9c0-4.9-3.4-9.2-8.3-11h15.8L98,62z
	 M23.8,66.9c-6,0-12.6-4.7-12.6-11c0-6,5.8-11,12.6-11h7.7v22H23.8z M32.4,66.9v-22h5.6v22H32.4z M39,66.9v-22h8.9v22H39z
	 M72.5,55.9c0,6.5-6.7,11-12.6,11h-11v-22h11C66.7,44.9,72.5,50,72.5,55.9z M97,29.2v30.5L81.8,44.4L97,29.2z"/>
</svg>
