<?xml version="1.0" encoding="utf-8"?>
<!-- Generator: Adobe Illustrator 18.1.1, SVG Export Plug-In . SVG Version: 6.00 Build 0)  -->
<svg version="1.1" id="Layer_1" xmlns="http://www.w3.org/2000/svg" xmlns:xlink="http://www.w3.org/1999/xlink" x="0px" y="0px"
	 viewBox="0 0 100 100" enable-background="new 0 0 100 100" xml:space="preserve">
<g>
	<path d="M82,34c0,4.5-0.7,8.3-2.1,11.2L57.2,93.6c-0.7,1.4-1.7,2.5-3,3.2C52.9,97.6,51.5,98,50,98c-1.5,0-2.9-0.4-4.2-1.2
		c-1.3-0.8-2.3-1.9-2.9-3.2L20.1,45.2C18.7,42.3,18,38.5,18,34c0-8.8,3.1-16.4,9.4-22.6S41.2,2,50,2c8.8,0,16.4,3.1,22.6,9.4
		C78.9,17.6,82,25.2,82,34z M61.3,45.3C64.4,42.2,66,38.4,66,34c0-4.4-1.6-8.2-4.7-11.3C58.2,19.6,54.4,18,50,18
		c-4.4,0-8.2,1.6-11.3,4.7C35.6,25.8,34,29.6,34,34c0,4.4,1.6,8.2,4.7,11.3C41.8,48.4,45.6,50,50,50C54.4,50,58.2,48.4,61.3,45.3z"
		/>
</g>
</svg>
