<?xml version="1.0" encoding="utf-8"?>
<!-- Generator: Adobe Illustrator 18.1.1, SVG Export Plug-In . SVG Version: 6.00 Build 0)  -->
<svg version="1.1" id="Layer_1" xmlns="http://www.w3.org/2000/svg" xmlns:xlink="http://www.w3.org/1999/xlink" x="0px" y="0px"
	 viewBox="0 0 100 100" enable-background="new 0 0 100 100" xml:space="preserve">
<path d="M88.2,72L83,74.4l-8.4-16.4l-14.1-7.8V27.6l8.5-8l3.7,3.8l-6,11.1l-1.9-1.1l-0.5,0.8l2.7,1.6l6.4-11.8l7.6,4.5L70.4,46.3
	l-5.6-2.8l-0.4,0.9l6.4,3.2l11.7-19.5l-8.8-5.2l-3.8-4l9.5-9l-8.2-8.6l-9.6,8.9l-5.3-5.5l-0.7,0.7l5.2,5.5l-8.3,7.7h-7.8L8,40.7
	l5.4,8.4l30.5-17.9l-8,20.9l3.8,2l-0.2,14.1L23.2,84.4l14.7,14.3l5.2-5.9l-4.6-4.2L52,74.5V60.4l13.1,6.7l10.4,20.3l16.5-8L88.2,72z
	 M71.1,2.7l6.9,7.2l-8.9,8.3L62.1,11L71.1,2.7z M61.4,11.6l7,7.2l-8.3,7.8l-6.7-7.6L61.4,11.6z M51,74.1L37.1,88.7l4.6,4.2l-3.9,4.4
	L24.6,84.4l15.9-15.9l0.2-14L51,59.9V74.1z M65.8,66.4L37.1,51.6L45.8,29L13.7,47.8L9.3,41L45,19.5h7.5l5.1,5.8l1.9,2.2v23.3
	l14.3,7.9l8.7,16.9l5.2-2.4l2.9,5.8l-14.8,7.2L65.8,66.4z"/>
</svg>
