<?xml version="1.0" encoding="utf-8"?>
<!-- Generator: Adobe Illustrator 18.1.1, SVG Export Plug-In . SVG Version: 6.00 Build 0)  -->
<svg version="1.1" id="Layer_1" xmlns="http://www.w3.org/2000/svg" xmlns:xlink="http://www.w3.org/1999/xlink" x="0px" y="0px"
	 viewBox="0 0 100 100" enable-background="new 0 0 100 100" xml:space="preserve">
<g>
	<path d="M75.8,44.6V50h-2.7V30.8C73.1,19.6,62,9.3,49.8,9.3C37,9.3,27,18.8,27,30.8V50h-2.7v-5.5h-2.7l0,6.8
		C21.3,59,24,66.1,29.3,71.5c5.1,5.2,11.9,8.2,19.4,8.5v10.6h2.7V80c15.3-0.8,27.1-13.1,27.1-28.7v-6.8H75.8z M29.7,47.3h13.3v-2.7
		H29.7v-5.4h13.3v-2.7H29.7V31h13.3v-2.7H29.8c0.9-6.7,5.2-11.6,10.7-14.2v6h2.7v-7.1c1.8-0.6,3.6-0.9,5.4-1v8.1h2.7v-8.1
		c1.9,0.2,3.7,0.6,5.4,1.2v6.9h2.7v-5.7c5.5,2.9,9.7,8.1,10.6,13.8H56.6V31h13.7v5.4H56.6v2.7h13.7v5.4H56.6v2.7h13.7V50H29.7V47.3z
		 M70.3,52.7C69.5,62.1,60.2,70.3,50,70.3c-10.2,0-19.4-8.2-20.3-17.6H70.3z M49.8,77.4c-7.1,0-13.7-2.7-18.6-7.7
		c-4.4-4.5-6.9-10.5-7-16.9H27c0.8,11,11.2,20.3,23,20.3s22.2-9.4,23-20.3h2.7C75.1,66.6,63.9,77.4,49.8,77.4z"/>
</g>
</svg>
