<?xml version="1.0" encoding="utf-8"?>
<!-- Generator: Adobe Illustrator 18.1.1, SVG Export Plug-In . SVG Version: 6.00 Build 0)  -->
<svg version="1.1" id="Layer_1" xmlns="http://www.w3.org/2000/svg" xmlns:xlink="http://www.w3.org/1999/xlink" x="0px" y="0px"
	 viewBox="0 0 100 100" enable-background="new 0 0 100 100" xml:space="preserve">
<g>
	<path d="M39.8,84.6C19.2,84.3,2,82,2,63.4c0-5.8,2.3-12.2,5.5-18.6l14-29.4l18.3,5.5l-6.7,28.8c-0.3,1.7,0,2.6,1.4,3.2l11.1,3.8
		L39.8,84.6z M92.2,84.6C71.5,84.3,54.4,82,54.4,63.4c0-5.8,2.3-12.2,5.5-18.6l14-29.4l18.3,5.5l-6.7,28.8c-0.3,1.7,0,2.6,1.5,3.2
		L98,56.7L92.2,84.6z"/>
</g>
</svg>
