<?xml version="1.0" encoding="utf-8"?>
<!-- Generator: Adobe Illustrator 18.1.1, SVG Export Plug-In . SVG Version: 6.00 Build 0)  -->
<svg version="1.1" id="Layer_1" xmlns="http://www.w3.org/2000/svg" xmlns:xlink="http://www.w3.org/1999/xlink" x="0px" y="0px"
	 viewBox="0 0 100 100" enable-background="new 0 0 100 100" xml:space="preserve">
<path d="M89.9,14.8c0-0.1,0-0.2,0-0.2c0-0.1,0-0.1,0-0.2c0-0.1-0.1-0.1-0.1-0.2c0,0,0-0.1,0-0.1c0,0,0,0-0.1-0.1
	c0-0.1-0.1-0.1-0.2-0.2c0,0-0.1-0.1-0.1-0.1c0,0,0,0-0.1-0.1c0,0-0.1,0-0.1-0.1c-0.1,0-0.1,0-0.2-0.1c-0.1,0-0.2,0-0.2,0
	c-0.1,0-0.1,0-0.2,0c-0.1,0-0.2,0-0.3,0.1c0,0-0.1,0-0.1,0L10.8,45.6c-0.4,0.2-0.7,0.6-0.7,1.1c0,0.5,0.3,0.9,0.7,1.1l28.9,11.7
	v25.8c0,0.5,0.4,1,0.9,1.2c0.1,0,0.2,0,0.3,0c0.4,0,0.8-0.2,1-0.6l11.5-19.2l21,11.2c0.2,0.1,0.4,0.1,0.6,0.1c0.2,0,0.3,0,0.5-0.1
	c0.3-0.2,0.6-0.5,0.7-0.8L89.9,15c0,0,0,0,0-0.1C89.9,14.9,89.9,14.8,89.9,14.8z M83,18.4L71.3,29.1L40.6,57.3L14.4,46.7L83,18.4z
	 M42.1,80.9V60.6l9.2,4.9L42.1,80.9z M74.2,75.1L42.9,58.4l43.9-40.2L74.2,75.1z"/>
</svg>
