<?xml version="1.0" encoding="utf-8"?>
<!-- Generator: Adobe Illustrator 18.1.1, SVG Export Plug-In . SVG Version: 6.00 Build 0)  -->
<svg version="1.1" id="Layer_1" xmlns="http://www.w3.org/2000/svg" xmlns:xlink="http://www.w3.org/1999/xlink" x="0px" y="0px"
	 viewBox="0 0 100 100" enable-background="new 0 0 100 100" xml:space="preserve">
<g>
	<polygon fill="none" stroke="#DF381E" stroke-width="0.9701" stroke-miterlimit="10" points="44.8,18.7 8.2,40.7 13.2,48.4 
		44.8,29.9 36.4,51.9 65.6,66.9 76,87.2 91.8,79.5 88.4,72.9 83.1,75.3 74.5,58.5 60.1,50.6 60.1,27.1 52.7,18.7 	"/>
	<polygon fill="none" stroke="#DF381E" stroke-width="0.9701" stroke-miterlimit="10" points="78.9,9.5 60.1,27.1 52.7,18.7 
		71.3,1.5 	"/>
	<polyline fill="none" stroke="#DF381E" stroke-width="0.9701" stroke-miterlimit="10" points="64.7,43.9 70.8,46.9 82.1,28 
		73.5,23 67.1,35 64.7,33.6 	"/>
	<line fill="none" stroke="#DF381E" stroke-width="0.9701" stroke-miterlimit="10" x1="55.9" y1="4.6" x2="73.5" y2="23"/>
	<polyline fill="none" stroke="#DF381E" stroke-width="0.9701" stroke-miterlimit="10" points="51.5,64.2 51.5,74.6 37.7,89.1 
		42.3,93.3 37.7,98.5 23.6,84.8 39.9,68.5 40.1,58.3 	"/>
</g>
</svg>
