<?xml version="1.0" encoding="utf-8"?>
<!-- Generator: Adobe Illustrator 18.1.1, SVG Export Plug-In . SVG Version: 6.00 Build 0)  -->
<svg version="1.1" id="Layer_1" xmlns="http://www.w3.org/2000/svg" xmlns:xlink="http://www.w3.org/1999/xlink" x="0px" y="0px"
	 viewBox="0 0 311.3 324" enable-background="new 0 0 311.3 324" xml:space="preserve">
<g>
	<path d="M73.5,99.8c0,12.5,16.2,50.6,55.9,50.6c39.7,0,57.2-32.1,57.2-49.9v-74h8.7V6.7h-39.6v86.6c0,8.2-2,28.8-25.5,28.8
		c-23.6,0-26.2-26.4-26.2-35.8V6.7H63.5v19.8h10V99.8z"/>
	<polygon points="240.4,52.1 287.4,147 306.5,147 306.5,26.2 306.5,6.7 283,6.7 283,26.2 292,26.2 292,103.9 247.2,6.7 202.2,6.7 
		202.2,26.2 212.2,26.2 212.2,118.7 202.2,118.7 202.2,147 240.4,147 	"/>
	<path d="M256.7,178.1c-14.1,0-32.6,0.8-32.6,0.8v25.9h6.5v75.7l-51.2-102.4h-41v26.6h10V299h-7.7l-29.4-120.8h-30L51.9,299H23.5
		v-94.3h9.3v-26.6l-28.9,0v137.4h71.4l4.9-19.5h32.3l4.9,19.5h59.2v-83.2l41.2,83.2h83.5c1.8-1.3,3.7-2.8,5.4-4.5V197.6
		C289.2,180.5,265.3,178.1,256.7,178.1z M86.3,272l10.1-40l10.1,40H86.3z M261.1,298.8v-92.9c0,0,35.5-8,35.5,46.8
		C296.6,307.5,261.1,298.8,261.1,298.8z"/>
	<path d="M63.2,105.9c0-44.4-45.8-52-59.3-59v23.5c0,19,27.9,11.3,27.9,34.7c0,16.9-17.2,21-20,21c-2.7,0-7.9-0.3-7.9-0.3v25.5
		C5.6,151.3,63.2,150.3,63.2,105.9z"/>
</g>
</svg>
