<?xml version="1.0" encoding="utf-8"?>
<!-- Generator: Adobe Illustrator 18.1.1, SVG Export Plug-In . SVG Version: 6.00 Build 0)  -->
<svg version="1.1" id="Layer_1" xmlns="http://www.w3.org/2000/svg" xmlns:xlink="http://www.w3.org/1999/xlink" x="0px" y="0px"
	 viewBox="0 0 100 100" enable-background="new 0 0 100 100" xml:space="preserve">
<g>
	<path d="M96.8,22.9c-3.7,3.7-13.2,6.4-25.2,7.2V2l-0.8,1c-3.3,4-14,6.8-27.9,7.4C27.5,11.1,9,8.7,3.2,3L2.4,2.2v35.3
		c0,12.5,9.2,23.7,13.1,27.9l0.7-0.6C12.4,60.6,3.4,49.6,3.4,37.4V4.4c6.9,5.7,25.1,7.6,39.6,7c13.3-0.6,23.5-3.1,27.7-6.9v25.7
		c-2.5,0.2-5,0.2-7.7,0.2c-15.9,0-29.2-3-33.8-7.5l-0.8-0.8v34.8C28.4,79.5,54.5,98,63,98c8.5,0,34.6-18.5,34.6-41.1V22.1L96.8,22.9
		z M96.6,56.9C96.6,79,71.2,97.1,63,97.1c-8.2,0-33.6-18.1-33.6-40.1V24.3c5.3,4.3,18.3,7.1,33.6,7.1c15.3,0,28.3-2.8,33.7-7.1V56.9
		z"/>
	<path d="M50.5,69.9h-0.9c0,7.4,6,13.5,13.5,13.5c7.4,0,13.5-6,13.5-13.5h-0.9c0,6.9-5.6,12.5-12.5,12.5
		C56.1,82.4,50.5,76.8,50.5,69.9z"/>
	<path d="M77.6,46c3.3,0,6,2.7,6,6h0.9c0-3.8-3.1-7-7-7c-3.8,0-7,3.1-7,7h0.9C71.6,48.7,74.3,46,77.6,46z"/>
	<path d="M54.4,52h0.9c0-3.8-3.1-7-7-7c-3.8,0-7,3.1-7,7h0.9c0-3.3,2.7-6,6-6C51.7,46,54.4,48.7,54.4,52z"/>
</g>
</svg>
